<svg xmlns="http://www.w3.org/2000/svg"><symbol viewBox="0 0 103.94 171.97" id="home--phone-be-sticky"><title>sc-icons-be-sticky</title>
  <g>
    <path d="M89.37,4A10.53,10.53,0,0,1,99.94,14.47v143A10.53,10.53,0,0,1,89.37,168H14.56A10.53,10.53,0,0,1,4,157.5v-143A10.53,10.53,0,0,1,14.56,4H89.37m0-4H14.56A14.54,14.54,0,0,0,0,14.47v143A14.54,14.54,0,0,0,14.56,172H89.37a14.54,14.54,0,0,0,14.56-14.47v-143A14.54,14.54,0,0,0,89.37,0h0Z" fill="#ddd"/>
  </g>
  <g>
    <path d="M93.9,32l0,104-81.85-.06L12,32H93.9m1.7-2H10.33a0.3,0.3,0,0,0-.3.3L10.09,137.6a0.3,0.3,0,0,0,.3.3L95.63,138a0.3,0.3,0,0,0,.3-0.3l0-107.39a0.3,0.3,0,0,0-.3-0.3h0Z" fill="#ddd"/>
  </g>
  <g>
    <g data-name="ear">
      <path d="M59.45,16.14H43.92c-2.11,0-2.93,3.84,0,3.84H59.45c2.93,0,2.11-3.84,0-3.84h0Z" fill="#ddd"/>
    </g>
  </g>
  <g>
    <g data-name="Camera">
      <ellipse cx="51.83" cy="9.89" rx="1.98" ry="1.97" fill="#ddd"/>
    </g>
  </g>
  <g data-name="Home Button">
    <g data-name="Base">
      <path d="M52.78,145.79a7,7,0,1,1-7.06,7,7,7,0,0,1,7.06-7m0-2a9,9,0,1,0,9.06,9,9,9,0,0,0-9.06-9h0Z" fill="#ddd"/>
    </g>
  </g>
  <g data-name="Form 21" style="isolation: isolate">
    <g data-name="Form 21">
      <path d="M47.89,67.57H67.54L62,72.51l2.64,3,11-9.91L64.63,54.74l-2.78,2.92,6,5.86H47.89A25.17,25.17,0,0,0,22.94,88.85v2.29h4V88.85A21.14,21.14,0,0,1,47.89,67.57ZM79,77.06v1.88a21.14,21.14,0,0,1-21,21.28H37.53l5.17-5.16-2.8-2.89L29.79,102.26l10.67,10.43,2.77-2.92-5.62-5.49H58A25.17,25.17,0,0,0,82.94,78.94V77.06H79Z" fill="#3c4b73"/>
    </g>
  </g></symbol>
<symbol viewBox="0 0 103.94 171.97" id="home--phone-grow-virally"><title>sc-icons-grow-virally</title>
  <g>
    <path d="M89.37,4A10.53,10.53,0,0,1,99.94,14.47v143A10.53,10.53,0,0,1,89.37,168H14.56A10.53,10.53,0,0,1,4,157.5v-143A10.53,10.53,0,0,1,14.56,4H89.37m0-4H14.56A14.54,14.54,0,0,0,0,14.47v143A14.54,14.54,0,0,0,14.56,172H89.37a14.54,14.54,0,0,0,14.56-14.47v-143A14.54,14.54,0,0,0,89.37,0h0Z" fill="#ddd"/>
  </g>
  <g>
    <path d="M93.9,32l0,104-81.85-.06L12,32H93.9m1.7-2H10.33a0.3,0.3,0,0,0-.3.3L10.09,137.6a0.3,0.3,0,0,0,.3.3L95.63,138a0.3,0.3,0,0,0,.3-0.3l0-107.39a0.3,0.3,0,0,0-.3-0.3h0Z" fill="#ddd"/>
  </g>
  <g>
    <g data-name="ear">
      <path d="M59.45,16.14H43.92c-2.11,0-2.93,3.84,0,3.84H59.45c2.93,0,2.11-3.84,0-3.84h0Z" fill="#ddd"/>
    </g>
  </g>
  <g>
    <g data-name="Camera">
      <ellipse cx="51.83" cy="9.89" rx="1.98" ry="1.97" fill="#ddd"/>
    </g>
  </g>
  <g data-name="Home Button">
    <g data-name="Base">
      <path d="M52.78,145.79a7,7,0,1,1-7.06,7,7,7,0,0,1,7.06-7m0-2a9,9,0,1,0,9.06,9,9,9,0,0,0-9.06-9h0Z" fill="#ddd"/>
    </g>
  </g>
  <g>
    <path d="M68.94,113a6,6,0,0,1-5.73-7.79l0.45-1.43h0l1.15-1.1a6,6,0,0,1,8.5,8.44l-0.16.17,0,0-0.3.26A6,6,0,0,1,68.94,113Zm0-23a6,6,0,0,1-5.8-4.5L62.75,84H43.13l-0.39,1.5a6,6,0,0,1-.7,1.64l-1,1.64-0.15-.1-1.06.58A6,6,0,1,1,40.22,79l1.1,0.72,0.1-.07,0.83,1.59a6,6,0,0,1,.49,1.28L43.13,84H62.75l0.39-1.5A6,6,0,1,1,68.94,90Zm0-23a6,6,0,0,1-3.82-1.37L64,64.65l0,0-0.59-1.5A6,6,0,1,1,68.94,67Z" fill="#fff"/>
    <path d="M68.94,57a4,4,0,0,1,0,8,4,4,0,0,1-2.54-.91l-0.79-.65-0.38-1A4,4,0,0,1,68.94,57m0,23a4,4,0,1,1-3.86,5l-0.26-1,0.26-1a4,4,0,0,1,3.86-3m-32,0a4,4,0,0,1,2.18.65L40,81.2l0.49,0.93a4,4,0,0,1,.32.85l0.26,1-0.26,1a4,4,0,0,1-.46,1.09L39.78,87l-0.92.5a3.94,3.94,0,0,1-1.92.49,4,4,0,1,1,0-8m32,23a4,4,0,0,1,2.91,6.74l-0.17.18-0.15.13a4,4,0,0,1-2.58,1,4,4,0,0,1-3.82-5.2l0.3-1,0.76-.72A4,4,0,0,1,68.94,103m0-50A8,8,0,0,0,61.5,63.9L41.32,77.28A8,8,0,1,0,40.78,91l20.52,13.59a8,8,0,0,0,12.81,8.49l0.21,0.14,0.43-.75a8,8,0,0,0-11.34-11.26l-19.67-13A8,8,0,0,0,44.68,86H61.2a8,8,0,1,0,0-4H44.68a7.94,7.94,0,0,0-.65-1.7L63.85,67.14A8,8,0,1,0,68.94,53h0Z" fill="#3b4b72"/>
  </g></symbol>
<symbol viewBox="0 0 103.94 171.97" id="home--phone-invest"><title>sc-icons-invest</title>
  <g>
    <path d="M89.37,4A10.53,10.53,0,0,1,99.94,14.47v143A10.53,10.53,0,0,1,89.37,168H14.56A10.53,10.53,0,0,1,4,157.5v-143A10.53,10.53,0,0,1,14.56,4H89.37m0-4H14.56A14.54,14.54,0,0,0,0,14.47v143A14.54,14.54,0,0,0,14.56,172H89.37a14.54,14.54,0,0,0,14.56-14.47v-143A14.54,14.54,0,0,0,89.37,0h0Z" fill="#ddd"/>
  </g>
  <g>
    <path d="M93.9,32l0,104-81.85-.06L12,32H93.9m1.7-2H10.33a0.3,0.3,0,0,0-.3.3L10.09,137.6a0.3,0.3,0,0,0,.3.3L95.63,138a0.3,0.3,0,0,0,.3-0.3l0-107.39a0.3,0.3,0,0,0-.3-0.3h0Z" fill="#ddd"/>
  </g>
  <g>
    <g data-name="ear">
      <path d="M59.45,16.14H43.92c-2.11,0-2.93,3.84,0,3.84H59.45c2.93,0,2.11-3.84,0-3.84h0Z" fill="#ddd"/>
    </g>
  </g>
  <g>
    <g data-name="Camera">
      <ellipse cx="51.83" cy="9.89" rx="1.98" ry="1.97" fill="#ddd"/>
    </g>
  </g>
  <g data-name="Home Button">
    <g data-name="Base">
      <path d="M52.78,145.79a7,7,0,1,1-7.06,7,7,7,0,0,1,7.06-7m0-2a9,9,0,1,0,9.06,9,9,9,0,0,0-9.06-9h0Z" fill="#ddd"/>
    </g>
  </g>
  <path d="M53.11,108.44v-5c-7.26-.42-12.84-4-15.6-10L44.83,90a10,10,0,0,0,8.28,6.12v-9.6C47.83,85.46,39.67,82.64,39.67,74c0-7,5.34-11.7,13.44-11.94V58.82h3.6v3.42a17.11,17.11,0,0,1,12.66,7.92l-6.54,3.78a10.15,10.15,0,0,0-6.12-4.26v8.58c6.12,1.44,13.44,4.5,13.44,12.54,0,6.54-4.8,11.82-13.44,12.54v5.1h-3.6Zm0-31v-8.1c-2.58.12-4.92,1.14-4.92,3.84C48.19,75.68,50.05,76.7,53.11,77.48Zm3.6,9.9v8.88c3.42-.36,5-2,5-4.5C61.75,89.12,59.77,88,56.71,87.38Z" fill="#3e4e77"/></symbol>
<symbol viewBox="0 0 103.94 171.97" id="home--phone-track"><title>sc-icons-track-analyze</title>
  <g>
    <path d="M89.37,4A10.53,10.53,0,0,1,99.94,14.47v143A10.53,10.53,0,0,1,89.37,168H14.56A10.53,10.53,0,0,1,4,157.5v-143A10.53,10.53,0,0,1,14.56,4H89.37m0-4H14.56A14.54,14.54,0,0,0,0,14.47v143A14.54,14.54,0,0,0,14.56,172H89.37a14.54,14.54,0,0,0,14.56-14.47v-143A14.54,14.54,0,0,0,89.37,0h0Z" fill="#ddd"/>
  </g>
  <g>
    <path d="M93.9,32l0,104-81.85-.06L12,32H93.9m1.7-2H10.33a0.3,0.3,0,0,0-.3.3L10.09,137.6a0.3,0.3,0,0,0,.3.3L95.63,138a0.3,0.3,0,0,0,.3-0.3l0-107.39a0.3,0.3,0,0,0-.3-0.3h0Z" fill="#ddd"/>
  </g>
  <g>
    <g data-name="ear">
      <path d="M59.45,16.14H43.92c-2.11,0-2.93,3.84,0,3.84H59.45c2.93,0,2.11-3.84,0-3.84h0Z" fill="#ddd"/>
    </g>
  </g>
  <g>
    <g data-name="Camera">
      <ellipse cx="51.83" cy="9.89" rx="1.98" ry="1.97" fill="#ddd"/>
    </g>
  </g>
  <g data-name="Home Button">
    <g data-name="Base">
      <path d="M52.78,145.79a7,7,0,1,1-7.06,7,7,7,0,0,1,7.06-7m0-2a9,9,0,1,0,9.06,9,9,9,0,0,0-9.06-9h0Z" fill="#ddd"/>
    </g>
  </g>
  <g data-name="Rechteck 79" style="isolation: isolate">
    <g>
      <path d="M54.94,74v34h-4V74h4m4-4h-12v42h12V70h0Z" fill="#3b4b72"/>
      <path d="M36.94,86v22h-4V86h4m4-4h-12v30h12V82h0Z" fill="#3b4b72"/>
      <path d="M72.94,60v48h-4V60h4m4-4h-12v56h12V56h0Z" fill="#3b4b72"/>
    </g>
  </g></symbol>
<symbol viewBox="0 0 103.94 171.97" id="icon-be-sticky-01"><title>sc-icons-be-sticky</title>
  <g>
    <path d="M89.37,4A10.53,10.53,0,0,1,99.94,14.47v143A10.53,10.53,0,0,1,89.37,168H14.56A10.53,10.53,0,0,1,4,157.5v-143A10.53,10.53,0,0,1,14.56,4H89.37m0-4H14.56A14.54,14.54,0,0,0,0,14.47v143A14.54,14.54,0,0,0,14.56,172H89.37a14.54,14.54,0,0,0,14.56-14.47v-143A14.54,14.54,0,0,0,89.37,0h0Z" fill="#ddd"/>
  </g>
  <g>
    <path d="M93.9,32l0,104-81.85-.06L12,32H93.9m1.7-2H10.33a0.3,0.3,0,0,0-.3.3L10.09,137.6a0.3,0.3,0,0,0,.3.3L95.63,138a0.3,0.3,0,0,0,.3-0.3l0-107.39a0.3,0.3,0,0,0-.3-0.3h0Z" fill="#ddd"/>
  </g>
  <g>
    <g data-name="ear">
      <path d="M59.45,16.14H43.92c-2.11,0-2.93,3.84,0,3.84H59.45c2.93,0,2.11-3.84,0-3.84h0Z" fill="#ddd"/>
    </g>
  </g>
  <g>
    <g data-name="Camera">
      <ellipse cx="51.83" cy="9.89" rx="1.98" ry="1.97" fill="#ddd"/>
    </g>
  </g>
  <g data-name="Home Button">
    <g data-name="Base">
      <path d="M52.78,145.79a7,7,0,1,1-7.06,7,7,7,0,0,1,7.06-7m0-2a9,9,0,1,0,9.06,9,9,9,0,0,0-9.06-9h0Z" fill="#ddd"/>
    </g>
  </g>
  <g data-name="Form 21" style="isolation: isolate">
    <g data-name="Form 21">
      <path d="M47.89,67.57H67.54L62,72.51l2.64,3,11-9.91L64.63,54.74l-2.78,2.92,6,5.86H47.89A25.17,25.17,0,0,0,22.94,88.85v2.29h4V88.85A21.14,21.14,0,0,1,47.89,67.57ZM79,77.06v1.88a21.14,21.14,0,0,1-21,21.28H37.53l5.17-5.16-2.8-2.89L29.79,102.26l10.67,10.43,2.77-2.92-5.62-5.49H58A25.17,25.17,0,0,0,82.94,78.94V77.06H79Z" fill="#3c4b73"/>
    </g>
  </g></symbol>
<symbol viewBox="0 0 60.007 57.945" id="icon-be-sticky-02"><g style="enable-background:new    ;">
	<g>
		<g>
			<path style="fill:#3C4B73;" d="M24.949,12.833h19.656l-5.498,4.936l2.644,3.036l11.045-9.914L41.696,0l-2.776,2.916l5.977,5.862     H24.949C11.192,8.778,0,20.142,0,34.11v2.287h3.993V34.11C3.993,22.378,13.394,12.833,24.949,12.833z M56.014,22.315v1.882     c0,11.734-9.401,21.278-20.955,21.278H14.591l5.167-5.157l-2.8-2.89L6.849,47.518l10.668,10.426l2.769-2.921l-5.62-5.494h20.394     c13.757,0,24.948-11.365,24.948-25.333v-1.882H56.014z"/>
		</g>
	</g>
</g>
<g>
</g></symbol>
<symbol viewBox="0 0 20 20" id="icon-chevron-down"><path d="M4.516 7.548c0.436-0.446 1.043-0.481 1.576 0l3.908 3.747 3.908-3.747c0.533-0.481 1.141-0.446 1.574 0 0.436 0.445 0.408 1.197 0 1.615-0.406 0.418-4.695 4.502-4.695 4.502-0.217 0.223-0.502 0.335-0.787 0.335s-0.57-0.112-0.789-0.335c0 0-4.287-4.084-4.695-4.502s-0.436-1.17 0-1.615z"/></symbol>
<symbol viewBox="0 0 16 28" id="icon-code-fork"><path d="M4.5 23q0-0.625-0.438-1.062t-1.062-0.438-1.062 0.438-0.438 1.062 0.438 1.062 1.062 0.438 1.062-0.438 0.438-1.062zM4.5 5q0-0.625-0.438-1.062t-1.062-0.438-1.062 0.438-0.438 1.062 0.438 1.062 1.062 0.438 1.062-0.438 0.438-1.062zM14.5 7q0-0.625-0.438-1.062t-1.062-0.438-1.062 0.438-0.438 1.062 0.438 1.062 1.062 0.438 1.062-0.438 0.438-1.062zM16 7q0 0.812-0.406 1.508t-1.094 1.086q-0.031 4.484-3.531 6.469-1.062 0.594-3.172 1.266-2 0.625-2.648 1.109t-0.648 1.563v0.406q0.688 0.391 1.094 1.086t0.406 1.508q0 1.25-0.875 2.125t-2.125 0.875-2.125-0.875-0.875-2.125q0-0.812 0.406-1.508t1.094-1.086v-12.812q-0.688-0.391-1.094-1.086t-0.406-1.508q0-1.25 0.875-2.125t2.125-0.875 2.125 0.875 0.875 2.125q0 0.812-0.406 1.508t-1.094 1.086v7.766q0.844-0.406 2.406-0.891 0.859-0.266 1.367-0.461t1.102-0.484 0.922-0.617 0.633-0.797 0.438-1.086 0.133-1.43q-0.688-0.391-1.094-1.086t-0.406-1.508q0-1.25 0.875-2.125t2.125-0.875 2.125 0.875 0.875 2.125z"/></symbol>
<symbol viewBox="0 0 30 28" id="icon-cogs"><path d="M14 14q0-1.656-1.172-2.828t-2.828-1.172-2.828 1.172-1.172 2.828 1.172 2.828 2.828 1.172 2.828-1.172 1.172-2.828zM26 22q0-0.812-0.594-1.406t-1.406-0.594-1.406 0.594-0.594 1.406q0 0.828 0.586 1.414t1.414 0.586 1.414-0.586 0.586-1.414zM26 6q0-0.812-0.594-1.406t-1.406-0.594-1.406 0.594-0.594 1.406q0 0.828 0.586 1.414t1.414 0.586 1.414-0.586 0.586-1.414zM20 12.578v2.891q0 0.156-0.109 0.305t-0.25 0.164l-2.422 0.375q-0.172 0.547-0.5 1.188 0.531 0.75 1.406 1.797 0.109 0.156 0.109 0.313 0 0.187-0.109 0.297-0.359 0.469-1.289 1.398t-1.227 0.93q-0.172 0-0.328-0.109l-1.797-1.406q-0.578 0.297-1.203 0.484-0.172 1.687-0.359 2.422-0.109 0.375-0.469 0.375h-2.906q-0.172 0-0.313-0.117t-0.156-0.273l-0.359-2.391q-0.531-0.156-1.172-0.484l-1.844 1.391q-0.109 0.109-0.313 0.109-0.172 0-0.328-0.125-2.25-2.078-2.25-2.5 0-0.141 0.109-0.297 0.156-0.219 0.641-0.828t0.734-0.953q-0.359-0.688-0.547-1.281l-2.375-0.375q-0.156-0.016-0.266-0.148t-0.109-0.305v-2.891q0-0.156 0.109-0.305t0.25-0.164l2.422-0.375q0.172-0.547 0.5-1.188-0.531-0.75-1.406-1.797-0.109-0.172-0.109-0.313 0-0.187 0.109-0.313 0.344-0.469 1.281-1.391t1.234-0.922q0.172 0 0.328 0.109l1.797 1.406q0.531-0.281 1.203-0.5 0.172-1.687 0.359-2.406 0.109-0.375 0.469-0.375h2.906q0.172 0 0.313 0.117t0.156 0.273l0.359 2.391q0.531 0.156 1.172 0.484l1.844-1.391q0.125-0.109 0.313-0.109 0.172 0 0.328 0.125 2.25 2.078 2.25 2.5 0 0.141-0.109 0.297-0.187 0.25-0.656 0.844t-0.703 0.938q0.359 0.75 0.531 1.281l2.375 0.359q0.156 0.031 0.266 0.164t0.109 0.305zM30 20.906v2.188q0 0.25-2.328 0.484-0.187 0.422-0.469 0.812 0.797 1.766 0.797 2.156 0 0.063-0.063 0.109-1.906 1.109-1.937 1.109-0.125 0-0.719-0.734t-0.812-1.062q-0.313 0.031-0.469 0.031t-0.469-0.031q-0.219 0.328-0.812 1.062t-0.719 0.734q-0.031 0-1.937-1.109-0.063-0.047-0.063-0.109 0-0.391 0.797-2.156-0.281-0.391-0.469-0.812-2.328-0.234-2.328-0.484v-2.188q0-0.25 2.328-0.484 0.203-0.453 0.469-0.812-0.797-1.766-0.797-2.156 0-0.063 0.063-0.109 0.063-0.031 0.547-0.313t0.922-0.531 0.469-0.25q0.125 0 0.719 0.727t0.812 1.055q0.313-0.031 0.469-0.031t0.469 0.031q0.797-1.109 1.437-1.75l0.094-0.031q0.063 0 1.937 1.094 0.063 0.047 0.063 0.109 0 0.391-0.797 2.156 0.266 0.359 0.469 0.812 2.328 0.234 2.328 0.484zM30 4.906v2.187q0 0.25-2.328 0.484-0.187 0.422-0.469 0.812 0.797 1.766 0.797 2.156 0 0.063-0.063 0.109-1.906 1.109-1.937 1.109-0.125 0-0.719-0.734t-0.812-1.062q-0.313 0.031-0.469 0.031t-0.469-0.031q-0.219 0.328-0.812 1.062t-0.719 0.734q-0.031 0-1.937-1.109-0.063-0.047-0.063-0.109 0-0.391 0.797-2.156-0.281-0.391-0.469-0.812-2.328-0.234-2.328-0.484v-2.188q0-0.25 2.328-0.484 0.203-0.453 0.469-0.812-0.797-1.766-0.797-2.156 0-0.063 0.063-0.109 0.063-0.031 0.547-0.313t0.922-0.531 0.469-0.25q0.125 0 0.719 0.727t0.812 1.055q0.313-0.031 0.469-0.031t0.469 0.031q0.797-1.109 1.437-1.75l0.094-0.031q0.063 0 1.937 1.094 0.063 0.047 0.063 0.109 0 0.391-0.797 2.156 0.266 0.359 0.469 0.812 2.328 0.234 2.328 0.484z"/></symbol>
<symbol viewBox="0 0 40 40" id="icon-f-analyze"><g>
	<path style="fill:#999999;" d="M40,36V6H30v30h-2V24H18v12h-2V14H6v22H4V0H0v40h40L40,36L40,36z M12,36h-2V18h2V36z M24,36h-2v-8h2   V36z M36,36h-2V10h2V36z"/>
</g>
<g>
</g></symbol>
<symbol viewBox="0 0 44 54" id="icon-f-appmarketing"><g>
	<path style="fill:#999999;" d="M11,14c2.209,0,4-1.791,4-4s-1.791-4-4-4s-4,1.791-4,4S8.791,14,11,14z M0,0v16h0v4.001h0V54h44V0H0   z M40,50H4V20.001h36V16H4V4h36V50z M36,8H18v4h18V8z"/>
</g>
<g>
</g></symbol>
<symbol viewBox="0 0 74 56" id="icon-f-appreferals"><g>
	<g>
		<path style="fill:#999999;" d="M40,0H0v26.023l15.663-0.034L26,36l3.84-0.285l0.114-9.757L40,25.937V0z M36,22.012h-6L30,22    l-1.475,0.012H26v7.989l-7.988-7.989H4V4h32V22.012z"/>
		<rect x="8" y="10" style="fill:#999999;" width="24" height="2"/>
		<rect x="8" y="14" style="fill:#999999;" width="14" height="2"/>
		<path style="fill:#999999;" d="M58.337,30.011L48,20l-3.84,0.285l-0.114,9.756L34,30.063V56h40V29.977L58.337,30.011z M70,52H38    V33.902l6.001,0.016L44,34l4-0.032V26l7.95,7.951L70,33.988V52z"/>
		<rect x="42" y="40" style="fill:#999999;" width="24" height="2"/>
		<rect x="42" y="44" style="fill:#999999;" width="14" height="2"/>
	</g>
</g>
<g>
</g></symbol>
<symbol viewBox="0 0 65.507 61.612" id="icon-f-automessages"><g>
	<g>
		<path style="fill:#999999;" d="M60.54,8.803c-0.29-0.637-0.622-1.209-1-1.714c1.134-2.484,1.7-4.001,1.7-4.551    c0-0.088-0.045-0.165-0.134-0.231C58.439,0.769,57.06,0,56.973,0l-0.2,0.064c-0.912,0.903-1.933,2.133-3.067,3.694    c-0.445-0.043-0.778-0.065-1.001-0.065c-0.222,0-0.554,0.022-1,0.065c-0.311-0.461-0.889-1.203-1.733-2.225    C49.125,0.51,48.613,0,48.436,0c-0.045,0-0.378,0.177-1,0.527c-0.622,0.351-1.278,0.726-1.968,1.121    c-0.689,0.396-1.078,0.616-1.167,0.66c-0.087,0.066-0.132,0.143-0.132,0.231c0,0.55,0.566,2.066,1.7,4.551    c-0.377,0.505-0.712,1.077-1,1.714c-3.312,0.33-4.968,0.671-4.968,1.022v4.616c0,0.352,1.655,0.692,4.968,1.022    c0.267,0.593,0.599,1.166,1,1.715c-1.134,2.484-1.7,4.001-1.7,4.549c0,0.088,0.045,0.165,0.132,0.231    c2.713,1.561,4.09,2.34,4.135,2.34c0.177,0,0.689-0.515,1.534-1.548c0.844-1.033,1.422-1.781,1.733-2.243    c0.445,0.046,0.778,0.067,1,0.067c0.224,0,0.556-0.021,1.001-0.067c0.311,0.462,0.889,1.21,1.733,2.243    c0.844,1.033,1.356,1.548,1.534,1.548c0.043,0,1.422-0.779,4.133-2.34c0.089-0.066,0.134-0.143,0.134-0.231    c0-0.548-0.566-2.065-1.7-4.549c0.399-0.549,0.733-1.122,1-1.715c3.312-0.33,4.968-0.67,4.968-1.022V9.825    C65.507,9.474,63.852,9.133,60.54,8.803z M56.165,15.555c-0.958,0.946-2.112,1.419-3.465,1.419c-1.351,0-2.505-0.472-3.463-1.419    c-0.958-0.946-1.436-2.087-1.436-3.425c0-1.311,0.484-2.448,1.456-3.408c0.969-0.958,2.116-1.438,3.443-1.438    c1.328,0,2.476,0.481,3.445,1.438c0.969,0.96,1.456,2.096,1.456,3.408C57.601,13.468,57.121,14.61,56.165,15.555z"/>
		<rect x="7.969" y="37.647" style="fill:#999999;" width="14" height="2"/>
		<polygon style="fill:#999999;" points="32.031,31.553 8.031,31.616 8.031,33.459 32.031,33.459   "/>
		<path style="fill:#999999;" d="M0,51.576h15.389l10.142,9.977l4.465,0.059l0.07-10.036H40V21.46H0V51.576z M4,25.522h32V47.55    l-10.469-0.003v9.944l-7.776-9.973l-6.527-0.035l0.062,0.061L4,47.542V25.522z"/>
	</g>
</g>
<g>
</g></symbol>
<symbol viewBox="0 0 71.651 61.813" id="icon-f-customdomain"><g>
	<g>
		<g>
			<path style="fill:#999999;" d="M3.629,23.368c0.077-0.101,0.148-0.207,0.219-0.313c0.057-0.085,0.115-0.171,0.176-0.253     c4.466-6.04,10.153-9.711,16.963-10.976c0.418-1.637,1.295-3.086,2.491-4.205c-4.962,0.43-9.622,1.999-13.912,4.691     c-0.236,0.148-0.472,0.299-0.706,0.453c-3.266,2.164-6.092,5.002-8.398,8.435c-0.386,0.575-0.535,1.164-0.429,1.701     c0.091,0.463,0.366,0.86,0.795,1.146c0.308,0.207,0.653,0.307,1.002,0.307c0.081,0,0.163-0.005,0.244-0.016     C2.644,24.263,3.208,23.929,3.629,23.368z M7.792,49.35c-0.036-0.105-0.072-0.21-0.105-0.316     c-1.859-6.057-2.121-11.057-0.824-15.736c1.328-4.792,4.458-8.915,8.815-11.61c1.742-1.078,3.606-1.867,5.527-2.382     c-0.317-0.904-0.499-1.872-0.499-2.884v-0.88C12.56,17.444,6.825,22.552,3.649,30.78c-1.594,4.13-1.848,8.762-0.799,14.579     c0.317,1.76,0.829,3.504,1.324,5.189l0.08,0.274c0.221,0.756,0.587,1.274,1.086,1.538c0.436,0.232,0.943,0.258,1.507,0.078     c1.086-0.348,1.481-1.378,1.056-2.753C7.868,49.572,7.83,49.46,7.792,49.35z M8.149,7.48c0.277,0.426,0.736,0.817,1.486,0.817     c0.238,0,0.505-0.039,0.804-0.129c0.302-0.091,0.562-0.241,0.814-0.386c0.094-0.055,0.189-0.109,0.284-0.159     c7.816-4.082,15.927-4.884,24.109-2.385c0.025,0.008,0.05,0.018,0.075,0.026h8.961c-0.232-0.26-0.523-0.547-0.884-0.739     C33.161-1.136,22.193-1.487,11.2,3.48c-0.904,0.409-1.736,0.86-2.471,1.342c-0.93,0.609-1.187,1.534-0.688,2.474     C8.073,7.358,8.109,7.419,8.149,7.48z M43.415,51.571c-4.036,0.574-7.161-0.068-9.76-2.01c-0.21-0.157-0.417-0.319-0.62-0.494     c-2.948-2.525-4.487-5.76-4.704-9.891c-0.066-1.255-0.746-1.948-1.915-1.951h-0.006c-0.516,0-0.966,0.18-1.304,0.52     c-0.391,0.394-0.593,0.963-0.586,1.645c0.004,0.396,0.057,0.783,0.108,1.158c0.026,0.195,0.053,0.39,0.072,0.585     c0.817,8.266,7.877,14.511,16.422,14.526h0.026l0.026-0.003c0.212-0.025,0.452-0.047,0.711-0.072     c0.656-0.063,1.472-0.141,2.268-0.282c0.752-0.133,1.265-0.41,1.568-0.848c0.267-0.387,0.348-0.879,0.239-1.461     C45.842,52.343,45.349,51.297,43.415,51.571z M20.705,57.306c-2.128-2.204-3.848-4.769-5.112-7.625     c-2.054-4.641-2.67-8.929-1.885-13.108c1.14-6.071,6.503-10.48,12.752-10.483h0.009c6.233,0,11.473,4.31,12.743,10.485     c0.12,0.584,0.177,1.176,0.237,1.802c0.028,0.294,0.056,0.587,0.091,0.879c0.132,1.103,0.803,1.732,1.844,1.732h0.036     c1.123-0.016,1.799-0.709,1.853-1.901c0.013-0.288,0.013-0.572-0.002-0.846c-0.223-4.364-2.067-8.401-5.192-11.364     c-0.684-0.648-1.423-1.221-2.195-1.738h-6.459c-2.401,0-4.574-0.971-6.151-2.541c-7.497,1.449-13.366,7.872-13.652,15.554     c-0.275,7.382,1.939,14.056,6.579,19.835c0.752,0.936,1.549,1.802,2.3,2.598c0.157,0.167,0.326,0.303,0.503,0.408     c0.295,0.174,0.61,0.263,0.929,0.263c0.318,0,0.639-0.088,0.943-0.265c0.101-0.059,0.201-0.128,0.298-0.207     c0.898-0.731,0.962-1.763,0.172-2.762C21.143,57.767,20.918,57.527,20.705,57.306z M50.518,35.712     c-0.036-0.276-0.078-0.552-0.126-0.828c-0.609-3.55-2.006-6.854-4.027-9.745h-4.939c3.455,3.638,5.54,8.464,5.533,13.682     c-0.002,1.604-0.576,3.086-1.615,4.173c-1.03,1.079-2.428,1.672-3.937,1.672h-0.013c-3.106-0.007-5.492-2.483-5.549-5.76     c-0.051-2.887-1.414-5.548-3.74-7.299c-0.182-0.137-0.37-0.265-0.559-0.388c-2.223-1.44-4.908-1.876-7.47-1.189     c-4.626,1.243-6.961,5.012-6.937,11.203l0.001,0.023c0.025,0.468,0.065,0.932,0.119,1.391     c0.782,6.664,4.562,12.433,10.779,16.417c0.214,0.137,0.432,0.272,0.652,0.405c1.541,0.933,3.288,1.526,4.978,2.101l0.481,0.164     c0.156,0.053,0.329,0.078,0.509,0.078c0.609,0,1.295-0.277,1.664-0.619c0.476-0.442,0.582-1.651,0.19-2.156     c-0.474-0.61-1.329-0.943-1.932-1.14c-6.106-1.999-10.337-6.127-12.577-12.27c-1.035-2.841-1.349-5.337-0.96-7.633     c0.459-2.704,3.078-4.683,5.84-4.412c3.062,0.301,5.094,2.594,5.176,5.84c0.126,4.985,3.822,8.701,8.988,9.036     c4.535,0.295,8.672-2.861,9.411-7.185c0.168-0.985,0.247-2.029,0.236-3.104C50.686,37.363,50.628,36.54,50.518,35.712z"/>
		</g>
	</g>
	<g>
		<g>
			<path style="fill:#999999;" d="M39.124,21.101h-2.791L34.64,15.07l-1.729,6.032h-2.791l-2.646-9.615h3.007l1.296,6.05l1.747-6.05     h2.269l1.729,6.05l1.296-6.05h2.989L39.124,21.101z"/>
			<path style="fill:#999999;" d="M54.046,21.101h-2.791l-1.692-6.032l-1.729,6.032h-2.791l-2.647-9.615h3.008l1.296,6.05     l1.746-6.05h2.27l1.729,6.05l1.296-6.05h2.989L54.046,21.101z"/>
			<path style="fill:#999999;" d="M68.968,21.101h-2.791l-1.692-6.032l-1.729,6.032h-2.791l-2.647-9.615h3.008l1.296,6.05     l1.746-6.05h2.27l1.729,6.05l1.296-6.05h2.989L68.968,21.101z"/>
		</g>
	</g>
</g>
<g>
</g></symbol>
<symbol viewBox="0 0 34 44" id="icon-f-customlanders"><g>
	<path style="fill:#999999;" d="M17,4c7.168,0,13,5.832,13,13c0,4.606-6.879,14.164-13,21.096C10.879,31.163,4,21.605,4,17   C4,9.832,9.832,4,17,4 M17,24c3.86,0,7-3.14,7-7c0-3.86-3.14-7-7-7s-7,3.14-7,7C10,20.86,13.14,24,17,24 M17,0   C7.611,0,0,7.611,0,17c0,9.389,17,27,17,27s17-17.611,17-27C34,7.611,26.389,0,17,0L17,0z M17,20c-1.657,0-3-1.343-3-3   c0-1.657,1.343-3,3-3c1.657,0,3,1.343,3,3C20,18.657,18.657,20,17,20L17,20z"/>
</g>
<g>
</g></symbol>
<symbol viewBox="0 0 44 56" id="icon-f-deeplinking"><g>
	<g>
		<path style="fill:#999999;" d="M0,0v56h44V0H0z M38.956,51.013H3.981V3.987h35.006L38.956,51.013z"/>
		<path style="fill:#999999;" d="M35,8H8v33h27V8z M30.975,37.006l-18.981-0.031V12l18.981-0.031V37.006z"/>
		<path style="fill:#999999;" d="M24,43h-4c-0.552,0-1,0.448-1,1v4c0,0.552,0.448,1,1,1h4c0.552,0,1-0.448,1-1v-4    C25,43.448,24.552,43,24,43z"/>
		<polygon style="fill:#999999;" points="18,25.975 28.925,25.975 28.925,24.053 21.564,21.35 28.954,18.163 28.925,15.975     14.325,15.975 14.325,16 14,16 14,34 18,34   "/>
	</g>
</g>
<g>
</g></symbol>
<symbol viewBox="0 0 80 71" id="icon-f-ibeacons"><g>
	<g>
		<path d="M40,1.1c-10.9,0-20.6,4.9-27.1,12.7l2.8,3C21.4,9.7,30.2,5.1,40,5.1c9.8,0,18.6,4.5,24.3,11.6l2.8-3    C60.6,6,50.9,1.1,40,1.1z" style="fill:#999999"/>
		<path d="M40,8.2c-9,0-17.1,4.2-22.3,10.8l2.8,3C25,16.1,32,12.2,40,12.2c7.9,0,15,3.8,19.4,9.7l2.8-3    C57,12.4,49,8.2,40,8.2z" style="fill:#999999"/>
		<path d="M40,15.3c-7.2,0-13.5,3.6-17.3,9l2.8,3c3.1-4.8,8.4-8,14.5-8c6.1,0,11.4,3.2,14.5,7.9l2.8-3    C53.4,18.8,47.1,15.3,40,15.3z" style="fill:#999999"/>
	</g>
	<g>
		<path d="M49.5,35c-0.4-4.8-4.4-8.6-9.3-8.6c-4.9,0-8.9,3.8-9.3,8.6H25l6,24h18l6-24H49.5z M40.2,30.4    c2.7,0,4.9,2,5.2,4.6H34.9C35.3,32.4,37.5,30.4,40.2,30.4z M45.9,55H34.1l-4-16h19.8L45.9,55z" style="fill:#999999"/>
	</g>
</g>
<g>
</g></symbol>
<symbol viewBox="0 0 56 56" id="icon-f-marketinglinks"><g>
	<g>
		<g>
			<path style="fill:#999999;" d="M28,0C12.536,0,0,12.536,0,28s12.536,28,28,28s28-12.536,28-28S43.464,0,28,0z M28,52     C14.766,52,4,41.234,4,28C4,14.766,14.766,4,28,4c13.234,0,24,10.766,24,24C52,41.234,41.234,52,28,52z"/>
			<path style="fill:#999999;" d="M29.991,25.127v-4.576c1.344,0.32,2.304,0.992,3.264,2.272l3.488-2.016     c-1.632-2.624-4.16-3.872-6.752-4.224V14.76h-1.92v1.728c-4.319,0.128-7.167,2.624-7.167,6.368c0,4.607,4.352,6.111,7.167,6.687     v5.12c-1.76-0.225-3.424-1.088-4.416-3.264l-3.904,1.823c1.472,3.168,4.448,5.088,8.319,5.312v2.688h1.92v-2.72     c4.607-0.385,7.168-3.2,7.168-6.688C37.159,27.527,33.255,25.896,29.991,25.127z M28.071,24.711     c-1.632-0.416-2.624-0.96-2.624-2.271c0-1.44,1.248-1.984,2.624-2.048V24.711z M29.991,34.727v-4.735     c1.632,0.352,2.688,0.928,2.688,2.336C32.679,33.639,31.815,34.535,29.991,34.727z"/>
		</g>
	</g>
</g>
<g>
</g></symbol>
<symbol viewBox="0 0 54.015 49.695" id="icon-f-newsletter"><g>
	<path style="fill:#999999;" d="M54.015,0L0,19.053l22.687,7.072l3.025,23.57L54.015,0z M12.689,18.819l27.236-9.607L24.178,22.425   c-0.1-0.04-0.197-0.086-0.301-0.118L12.689,18.819z M26.646,25.576L42.35,12.398L28.156,37.32l-1.502-11.704   C26.652,25.602,26.648,25.589,26.646,25.576z"/>
</g>
<g>
</g></symbol>
<symbol viewBox="0 0 48 62.001" id="icon-f-print"><g>
	<g>
		<path style="fill:#999999;" d="M44,9.999v48.002L10,58V9.999H44 M48,5.999H6V62l42,0.001V5.999L48,5.999z"/>
	</g>
	<g>
		<rect x="2" y="2" style="fill:#FFFFFF;" width="38" height="52"/>
		<path style="fill:#999999;" d="M38,4v48L4,52V4H38 M42,0H0v56L42,56V0L42,0z"/>
	</g>
	<g>
		<path style="fill:#999999;" d="M30,27.968v12l-18-0.001v-12H30 M34,23.968H8v19.999l26,0.001V23.968L34,23.968z"/>
	</g>
	<polygon style="fill:#999999;" points="26,31.499 20,39.5 14,35.499 8,43.5 34,43.5  "/>
	<g>
		<polygon style="fill:#999999;" points="28,7.969 8,7.969 8,11.969 28,11.969 28,7.969   "/>
	</g>
	<g>
		<path style="fill:#999999;" d="M34,15.969H8v4h26V15.969L34,15.969z"/>
	</g>
</g>
<g>
</g></symbol>
<symbol viewBox="0 0 60.585 52" id="icon-f-socialmedia"><g>
	<g>
		<path style="fill:#999999;" d="M11.562,12C5.177,12,0,17.373,0,24c0,6.076,4.355,11.084,10,11.878V52h10V36h4.681l17.303,12V0    L24.68,12H11.562z M4,24c0-4.411,3.393-8,7.562-8h10.234v16H11.562C7.393,32,4,28.411,4,24z M16,48h-2V36h2V48z M37.984,40.358    L26,32.047V15.953l11.984-8.311V40.358z"/>
		
			<rect x="45.181" y="9" transform="matrix(0.9191 -0.3939 0.3939 0.9191 -0.0641 21.6879)" style="fill:#999999;" width="15.232" height="4"/>
		<path style="fill:#999999;" d="M45.984,26.001h14v-4h-14V26.001z M47.984,24h10v0L47.984,24L47.984,24z"/>
		
			<rect x="50.797" y="30.718" transform="matrix(0.3939 -0.9191 0.9191 0.3939 -3.2355 71.7603)" style="fill:#999999;" width="4" height="15.232"/>
	</g>
</g>
<g>
</g></symbol>
<symbol viewBox="0 0 103.94 171.97" id="icon-grow-virally-01"><title>sc-icons-grow-virally</title>
  <g>
    <path d="M89.37,4A10.53,10.53,0,0,1,99.94,14.47v143A10.53,10.53,0,0,1,89.37,168H14.56A10.53,10.53,0,0,1,4,157.5v-143A10.53,10.53,0,0,1,14.56,4H89.37m0-4H14.56A14.54,14.54,0,0,0,0,14.47v143A14.54,14.54,0,0,0,14.56,172H89.37a14.54,14.54,0,0,0,14.56-14.47v-143A14.54,14.54,0,0,0,89.37,0h0Z" fill="#ddd"/>
  </g>
  <g>
    <path d="M93.9,32l0,104-81.85-.06L12,32H93.9m1.7-2H10.33a0.3,0.3,0,0,0-.3.3L10.09,137.6a0.3,0.3,0,0,0,.3.3L95.63,138a0.3,0.3,0,0,0,.3-0.3l0-107.39a0.3,0.3,0,0,0-.3-0.3h0Z" fill="#ddd"/>
  </g>
  <g>
    <g data-name="ear">
      <path d="M59.45,16.14H43.92c-2.11,0-2.93,3.84,0,3.84H59.45c2.93,0,2.11-3.84,0-3.84h0Z" fill="#ddd"/>
    </g>
  </g>
  <g>
    <g data-name="Camera">
      <ellipse cx="51.83" cy="9.89" rx="1.98" ry="1.97" fill="#ddd"/>
    </g>
  </g>
  <g data-name="Home Button">
    <g data-name="Base">
      <path d="M52.78,145.79a7,7,0,1,1-7.06,7,7,7,0,0,1,7.06-7m0-2a9,9,0,1,0,9.06,9,9,9,0,0,0-9.06-9h0Z" fill="#ddd"/>
    </g>
  </g>
  <g>
    <path d="M68.94,113a6,6,0,0,1-5.73-7.79l0.45-1.43h0l1.15-1.1a6,6,0,0,1,8.5,8.44l-0.16.17,0,0-0.3.26A6,6,0,0,1,68.94,113Zm0-23a6,6,0,0,1-5.8-4.5L62.75,84H43.13l-0.39,1.5a6,6,0,0,1-.7,1.64l-1,1.64-0.15-.1-1.06.58A6,6,0,1,1,40.22,79l1.1,0.72,0.1-.07,0.83,1.59a6,6,0,0,1,.49,1.28L43.13,84H62.75l0.39-1.5A6,6,0,1,1,68.94,90Zm0-23a6,6,0,0,1-3.82-1.37L64,64.65l0,0-0.59-1.5A6,6,0,1,1,68.94,67Z" fill="#fff"/>
    <path d="M68.94,57a4,4,0,0,1,0,8,4,4,0,0,1-2.54-.91l-0.79-.65-0.38-1A4,4,0,0,1,68.94,57m0,23a4,4,0,1,1-3.86,5l-0.26-1,0.26-1a4,4,0,0,1,3.86-3m-32,0a4,4,0,0,1,2.18.65L40,81.2l0.49,0.93a4,4,0,0,1,.32.85l0.26,1-0.26,1a4,4,0,0,1-.46,1.09L39.78,87l-0.92.5a3.94,3.94,0,0,1-1.92.49,4,4,0,1,1,0-8m32,23a4,4,0,0,1,2.91,6.74l-0.17.18-0.15.13a4,4,0,0,1-2.58,1,4,4,0,0,1-3.82-5.2l0.3-1,0.76-.72A4,4,0,0,1,68.94,103m0-50A8,8,0,0,0,61.5,63.9L41.32,77.28A8,8,0,1,0,40.78,91l20.52,13.59a8,8,0,0,0,12.81,8.49l0.21,0.14,0.43-.75a8,8,0,0,0-11.34-11.26l-19.67-13A8,8,0,0,0,44.68,86H61.2a8,8,0,1,0,0-4H44.68a7.94,7.94,0,0,0-.65-1.7L63.85,67.14A8,8,0,1,0,68.94,53h0Z" fill="#3b4b72"/>
  </g></symbol>
<symbol viewBox="0 0 48 62" id="icon-grow-virally-02"><g>
	<g>
		<path style="fill:#FFFFFF;" d="M40,60c-3.309,0-6-2.691-6-6c0-0.611,0.092-1.215,0.272-1.793l0.449-1.435l-0.011-0.008    l1.148-1.099C36.983,48.592,38.454,48,40,48c3.309,0,6,2.691,6,6c0,1.529-0.582,2.988-1.64,4.11l-0.16,0.17l-0.021,0.035    l-0.301,0.256C42.796,59.492,41.418,60,40,60z M40,37c-2.732,0-5.118-1.851-5.801-4.499L33.812,31H14.188l-0.387,1.501    c-0.149,0.579-0.384,1.131-0.699,1.642l-1.012,1.641l-0.151-0.1l-1.059,0.58C10.001,36.745,9.005,37,8,37c-3.309,0-6-2.691-6-6    s2.691-6,6-6c1.166,0,2.3,0.339,3.279,0.979l1.102,0.721l0.102-0.067l0.834,1.591c0.204,0.391,0.368,0.82,0.485,1.275l0.388,1.5    h19.624l0.387-1.501C34.882,26.85,37.268,25,40,25c3.309,0,6,2.691,6,6S43.309,37,40,37z M40,14c-1.392,0-2.748-0.487-3.819-1.372    l-1.143-0.944L35.015,11.7l-0.592-1.5C34.143,9.488,34,8.748,34,8c0-3.309,2.691-6,6-6s6,2.691,6,6S43.309,14,40,14z"/>
		<path style="fill:#3B4B72;" d="M40,4c2.206,0,4,1.794,4,4s-1.794,4-4,4c-1.189,0-2.04-0.497-2.545-0.914l-0.789-0.652    l-0.383-0.969C36.095,8.989,36,8.496,36,8C36,5.794,37.794,4,40,4 M40,27c2.206,0,4,1.794,4,4s-1.794,4-4,4    c-1.82,0-3.409-1.233-3.865-2.999L35.877,31l0.258-1.001C36.591,28.233,38.18,27,40,27 M8,27c0.776,0,1.531,0.226,2.183,0.653    l0.876,0.573l0.485,0.927c0.134,0.255,0.242,0.54,0.32,0.846l0.258,1.002l-0.258,1c-0.1,0.386-0.256,0.752-0.463,1.089    l-0.566,0.917L9.918,34.51C9.325,34.835,8.68,35,8,35c-2.206,0-4-1.794-4-4S5.794,27,8,27 M40,50c2.206,0,4,1.794,4,4    c0,1.017-0.389,1.989-1.094,2.738l-0.172,0.182l-0.149,0.127C42.073,57.482,41.209,58,40,58c-2.206,0-4-1.794-4-4    c0-0.409,0.061-0.811,0.181-1.196l0.303-0.968l0.757-0.724C37.992,50.395,38.972,50,40,50 M40,0c-4.418,0-8,3.582-8,8    c0,1.037,0.204,2.025,0.563,2.934L12.374,24.306C11.116,23.483,9.615,23,8,23c-4.418,0-8,3.582-8,8s3.582,8,8,8    c1.393,0,2.701-0.357,3.842-0.983l20.522,13.592C32.128,52.364,32,53.167,32,54c0,4.418,3.582,8,8,8    c1.975,0,3.78-0.719,5.175-1.905l0.207,0.137l0.433-0.75C47.166,58.05,48,56.124,48,54c0-4.418-3.582-8-8-8    c-2.144,0-4.086,0.848-5.522,2.221l-19.673-13.03c0.414-0.671,0.731-1.407,0.933-2.191h16.524c0.889,3.448,4.011,6,7.738,6    c4.418,0,8-3.582,8-8s-3.582-8-8-8c-3.726,0-6.848,2.551-7.738,6H15.738c-0.154-0.597-0.37-1.168-0.65-1.702l19.82-13.127    C36.291,15.313,38.065,16,40,16c4.418,0,8-3.582,8-8S44.418,0,40,0L40,0z"/>
	</g>
</g>
<g>
</g></symbol>
<symbol viewBox="0 0 103.94 171.97" id="icon-invest-01"><title>sc-icons-invest</title>
  <g>
    <path d="M89.37,4A10.53,10.53,0,0,1,99.94,14.47v143A10.53,10.53,0,0,1,89.37,168H14.56A10.53,10.53,0,0,1,4,157.5v-143A10.53,10.53,0,0,1,14.56,4H89.37m0-4H14.56A14.54,14.54,0,0,0,0,14.47v143A14.54,14.54,0,0,0,14.56,172H89.37a14.54,14.54,0,0,0,14.56-14.47v-143A14.54,14.54,0,0,0,89.37,0h0Z" fill="#ddd"/>
  </g>
  <g>
    <path d="M93.9,32l0,104-81.85-.06L12,32H93.9m1.7-2H10.33a0.3,0.3,0,0,0-.3.3L10.09,137.6a0.3,0.3,0,0,0,.3.3L95.63,138a0.3,0.3,0,0,0,.3-0.3l0-107.39a0.3,0.3,0,0,0-.3-0.3h0Z" fill="#ddd"/>
  </g>
  <g>
    <g data-name="ear">
      <path d="M59.45,16.14H43.92c-2.11,0-2.93,3.84,0,3.84H59.45c2.93,0,2.11-3.84,0-3.84h0Z" fill="#ddd"/>
    </g>
  </g>
  <g>
    <g data-name="Camera">
      <ellipse cx="51.83" cy="9.89" rx="1.98" ry="1.97" fill="#ddd"/>
    </g>
  </g>
  <g data-name="Home Button">
    <g data-name="Base">
      <path d="M52.78,145.79a7,7,0,1,1-7.06,7,7,7,0,0,1,7.06-7m0-2a9,9,0,1,0,9.06,9,9,9,0,0,0-9.06-9h0Z" fill="#ddd"/>
    </g>
  </g>
  <path d="M53.11,108.44v-5c-7.26-.42-12.84-4-15.6-10L44.83,90a10,10,0,0,0,8.28,6.12v-9.6C47.83,85.46,39.67,82.64,39.67,74c0-7,5.34-11.7,13.44-11.94V58.82h3.6v3.42a17.11,17.11,0,0,1,12.66,7.92l-6.54,3.78a10.15,10.15,0,0,0-6.12-4.26v8.58c6.12,1.44,13.44,4.5,13.44,12.54,0,6.54-4.8,11.82-13.44,12.54v5.1h-3.6Zm0-31v-8.1c-2.58.12-4.92,1.14-4.92,3.84C48.19,75.68,50.05,76.7,53.11,77.48Zm3.6,9.9v8.88c3.42-.36,5-2,5-4.5C61.75,89.12,59.77,88,56.71,87.38Z" fill="#3e4e77"/></symbol>
<symbol viewBox="0 0 32.639 49.618" id="icon-invest-02"><g>
	<g>
		<path style="fill:#3E4E77;" d="M15.6,49.618v-5.04c-7.26-0.42-12.84-4.02-15.6-9.96l7.32-3.42c1.86,4.08,4.98,5.7,8.28,6.12v-9.6    c-5.28-1.08-13.439-3.9-13.439-12.54C2.16,8.159,7.5,3.479,15.6,3.239V0h3.6v3.42c4.86,0.66,9.6,3,12.659,7.919l-6.539,3.78    c-1.8-2.4-3.601-3.66-6.12-4.26v8.58c6.12,1.439,13.439,4.499,13.439,12.539c0,6.54-4.8,11.819-13.439,12.539v5.101H15.6z     M15.6,18.659v-8.1c-2.58,0.12-4.92,1.14-4.92,3.84C10.68,16.859,12.54,17.879,15.6,18.659z M19.199,28.559v8.88    c3.42-0.36,5.04-2.04,5.04-4.5C24.239,30.299,22.259,29.219,19.199,28.559z"/>
	</g>
</g>
<g>
</g></symbol>
<symbol viewBox="0 0 32 32" id="icon-lock"><path d="M25 13v-4c0-4.971-4.029-9-9-9s-9 4.029-9 9v4c-1.657 0-3 1.343-3 3v7c0 4.971 4.029 9 9 9h6c4.971 0 9-4.029 9-9v-7c0-1.658-1.344-3-3-3zM9 9c0-3.866 3.134-7 7-7s7 3.134 7 7v4h-2v-3.998c0-2.762-2.238-5-5-5s-5 2.238-5 5v3.998h-2v-4zM20 9v4h-8v-4c0-2.209 1.791-4 4-4s4 1.791 4 4zM26 19v4c0 3.859-3.141 7-7 7h-6c-3.859 0-7-3.141-7-7v-7c0-0.552 0.448-1 1-1 0.667 0 1.333 0 2 0h14c0.666 0 1.332 0 2 0 0.551 0 1 0.448 1 1v3zM16 19c1.104 0 2 0.895 2 2 0 0.609-0.328 1.768-0.666 2.682-0.273 0.738-0.552 1.316-1.334 1.316-0.719 0-1.061-0.584-1.333-1.326-0.334-0.912-0.667-2.065-0.667-2.672 0-1.105 0.896-2 2-2z"/></symbol>
<symbol viewBox="0 0 24 24" id="icon-menu"><path d="M3 5h18q0.414 0 0.707 0.293t0.293 0.707-0.293 0.707-0.707 0.293h-18q-0.414 0-0.707-0.293t-0.293-0.707 0.293-0.707 0.707-0.293zM3 17h18q0.414 0 0.707 0.293t0.293 0.707-0.293 0.707-0.707 0.293h-18q-0.414 0-0.707-0.293t-0.293-0.707 0.293-0.707 0.707-0.293zM3 11h18q0.414 0 0.707 0.293t0.293 0.707-0.293 0.707-0.707 0.293h-18q-0.414 0-0.707-0.293t-0.293-0.707 0.293-0.707 0.707-0.293z"/></symbol>
<symbol viewBox="0 0 22 28" id="icon-phone"><path d="M22 19.375q0 0.422-0.156 1.102t-0.328 1.070q-0.328 0.781-1.906 1.656-1.469 0.797-2.906 0.797-0.422 0-0.82-0.055t-0.898-0.195-0.742-0.227-0.867-0.32-0.766-0.281q-1.531-0.547-2.734-1.297-2-1.234-4.133-3.367t-3.367-4.133q-0.75-1.203-1.297-2.734-0.047-0.141-0.281-0.766t-0.32-0.867-0.227-0.742-0.195-0.898-0.055-0.82q0-1.437 0.797-2.906 0.875-1.578 1.656-1.906 0.391-0.172 1.070-0.328t1.102-0.156q0.219 0 0.328 0.047 0.281 0.094 0.828 1.188 0.172 0.297 0.469 0.844t0.547 0.992 0.484 0.836q0.047 0.063 0.273 0.391t0.336 0.555 0.109 0.445q0 0.313-0.445 0.781t-0.969 0.859-0.969 0.828-0.445 0.719q0 0.141 0.078 0.352t0.133 0.32 0.219 0.375 0.18 0.297q1.188 2.141 2.719 3.672t3.672 2.719q0.031 0.016 0.297 0.18t0.375 0.219 0.32 0.133 0.352 0.078q0.281 0 0.719-0.445t0.828-0.969 0.859-0.969 0.781-0.445q0.219 0 0.445 0.109t0.555 0.336 0.391 0.273q0.391 0.234 0.836 0.484t0.992 0.547 0.844 0.469q1.094 0.547 1.188 0.828 0.047 0.109 0.047 0.328z"/></symbol>
<symbol viewBox="0 0 30 30" id="icon-social-facebook"><g>
  <g>
    <path style="fill:#DDDDDD;" d="M15,1c7.7,0,14,6.3,14,14s-6.3,14-14,14C7.3,29,1,22.7,1,15S7.3,1,15,1 M15,0C6.7,0,0,6.7,0,15       c0,8.3,6.7,15,15,15s15-6.7,15-15C30,6.7,23.3,0,15,0L15,0z"/>
  </g>
  <g>
    <path style="fill:#9A9999;" d="M18.1,8.7v2.1h-1.2c-0.4,0-0.8,0.1-0.9,0.3s-0.2,0.5-0.2,0.8v1.5H18l-0.3,2.3h-2v5.9h-2.4v-5.9h-2       v-2.3h2v-1.7c0-1,0.3-1.7,0.8-2.3c0.5-0.5,1.3-0.8,2.2-0.8C17.1,8.6,17.7,8.6,18.1,8.7z"/>
  </g>
</g></symbol>
<symbol viewBox="0 0 13 11" id="icon-social-github"><title>github</title>
  <path d="M13,6.13a5.91,5.91,0,0,1-.48,2.59,3.15,3.15,0,0,1-.82,1,4.23,4.23,0,0,1-1.1.67,6.69,6.69,0,0,1-1.33.37A11.53,11.53,0,0,1,7.93,11q-0.59,0-1.3,0L5.52,11q-0.5,0-1.15-.1a7,7,0,0,1-1.19-.23,8.29,8.29,0,0,1-1.07-.4,3.44,3.44,0,0,1-.95-0.63,3.23,3.23,0,0,1-.67-0.9A5.79,5.79,0,0,1,0,6.13,4.59,4.59,0,0,1,1.06,3,4.22,4.22,0,0,1,.85,1.7,3.76,3.76,0,0,1,1.25,0,3.39,3.39,0,0,1,2.73.31a8.43,8.43,0,0,1,1.48,1A10.4,10.4,0,0,1,6.63,1a9.27,9.27,0,0,1,2.19.25A8.17,8.17,0,0,1,10.27.3,3.4,3.4,0,0,1,11.75,0a3.76,3.76,0,0,1,.4,1.7A4.12,4.12,0,0,1,11.94,3,4.64,4.64,0,0,1,13,6.13ZM11.25,7.5a2.43,2.43,0,0,0-.54-1.59,1.79,1.79,0,0,0-1.46-.66q-0.32,0-1.52.16A8,8,0,0,1,6.5,5.5a8,8,0,0,1-1.23-.09,15,15,0,0,0-1.52-.16,1.79,1.79,0,0,0-1.46.66A2.43,2.43,0,0,0,1.75,7.5,2.7,2.7,0,0,0,2,8.7a2.21,2.21,0,0,0,.63.8,3,3,0,0,0,1,.47,5.75,5.75,0,0,0,1.09.23,11.36,11.36,0,0,0,1.16.05H7.16a11.37,11.37,0,0,0,1.16-.05A5.77,5.77,0,0,0,9.41,10a3,3,0,0,0,1-.47A2.22,2.22,0,0,0,11,8.7,2.7,2.7,0,0,0,11.25,7.5ZM4.9,6.86a2.15,2.15,0,0,1,0,1.28,1.54,1.54,0,0,1-.34.59,0.74,0.74,0,0,1-1.13,0A1.53,1.53,0,0,1,3.1,8.14a2.15,2.15,0,0,1,0-1.28,1.53,1.53,0,0,1,.34-0.59,0.74,0.74,0,0,1,1.13,0A1.55,1.55,0,0,1,4.9,6.86Zm5,0a2.15,2.15,0,0,1,0,1.28,1.54,1.54,0,0,1-.34.59,0.74,0.74,0,0,1-1.13,0A1.53,1.53,0,0,1,8.1,8.14a2.15,2.15,0,0,1,0-1.28,1.53,1.53,0,0,1,.34-0.59,0.74,0.74,0,0,1,1.13,0A1.55,1.55,0,0,1,9.9,6.86Z" fill="#999"/></symbol>
<symbol viewBox="0 0 12.36 13" id="icon-social-google"><title>google</title>
  <path d="M5.49,6.22a0.81,0.81,0,0,0,.25.55,4.23,4.23,0,0,0,.61.53q0.36,0.26.71,0.57a2.68,2.68,0,0,1,.6.81A2.45,2.45,0,0,1,7.91,9.8a2.66,2.66,0,0,1-.37,1.35,3.33,3.33,0,0,1-1.65,1.4A6,6,0,0,1,3.55,13a5.62,5.62,0,0,1-1.93-.32A2.48,2.48,0,0,1,.29,11.6a1.91,1.91,0,0,1-.29-1A2.12,2.12,0,0,1,.35,9.41a2.91,2.91,0,0,1,.93-0.9,7,7,0,0,1,3.16-.78,3.49,3.49,0,0,1-.37-0.58,1.28,1.28,0,0,1-.12-0.57A1.74,1.74,0,0,1,4.1,5.91l-0.53,0a2.72,2.72,0,0,1-1.95-.75A2.52,2.52,0,0,1,.83,3.28,2.9,2.9,0,0,1,1.11,2a3,3,0,0,1,.77-1A3.9,3.9,0,0,1,3.31.25,5.83,5.83,0,0,1,5,0H8.27L7.2,0.69h-1a3.72,3.72,0,0,1,.88,1A2.58,2.58,0,0,1,7.34,3a2.56,2.56,0,0,1-.19,1,2.35,2.35,0,0,1-.46.73,7.31,7.31,0,0,1-.54.51,3.12,3.12,0,0,0-.46.48A0.84,0.84,0,0,0,5.49,6.22ZM4.37,12.29a3.7,3.7,0,0,0,.87-0.1A2.94,2.94,0,0,0,6,11.88a1.53,1.53,0,0,0,.57-0.57,1.65,1.65,0,0,0,.21-0.85,1.37,1.37,0,0,0-.05-0.38,3.2,3.2,0,0,0-.11-0.33,1.36,1.36,0,0,0-.21-0.32L6.19,9.15a2.73,2.73,0,0,0-.3-0.27L5.6,8.66,5.28,8.42,5,8.22l-0.37,0a6.19,6.19,0,0,0-.82.05,4.86,4.86,0,0,0-.84.2,3,3,0,0,0-.76.36,1.75,1.75,0,0,0-.54.58,1.61,1.61,0,0,0-.21.82,1.72,1.72,0,0,0,.27,1,1.87,1.87,0,0,0,.71.65,3.86,3.86,0,0,0,.93.34A4.41,4.41,0,0,0,4.37,12.29Zm0-6.82A1.59,1.59,0,0,0,5,5.34,1.5,1.5,0,0,0,5.48,5a1.76,1.76,0,0,0,.41-1.24,4,4,0,0,0-.13-1,5,5,0,0,0-.38-1A2.34,2.34,0,0,0,4.72,1,1.45,1.45,0,0,0,3.16.79a1.38,1.38,0,0,0-.51.41,2,2,0,0,0-.37,1.25,4,4,0,0,0,.08.76,4.07,4.07,0,0,0,.25.8A3.35,3.35,0,0,0,3,4.74a1.93,1.93,0,0,0,.59.52A1.46,1.46,0,0,0,4.35,5.47Zm6.34,0h1.66V6.29H10.7V8H9.88V6.29H8.22V5.45H9.88V3.75H10.7v1.7Z" fill="#999"/></symbol>
<symbol viewBox="0 0 30 30" id="icon-social-linkedin"><g>
  <g>
    <path style="fill:#DDDDDD;" d="M15,1c7.7,0,14,6.3,14,14s-6.3,14-14,14C7.3,29,1,22.7,1,15S7.3,1,15,1 M15,0C6.7,0,0,6.7,0,15       c0,8.3,6.7,15,15,15s15-6.7,15-15C30,6.7,23.3,0,15,0L15,0z"/>
  </g>
  <g>
    <path style="fill:#9A9999;" d="M12.5,10.1c0,0.4-0.1,0.7-0.4,1c-0.3,0.3-0.6,0.4-1.1,0.4h0c-0.4,0-0.8-0.1-1-0.4       c-0.3-0.3-0.4-0.6-0.4-1c0-0.4,0.1-0.7,0.4-1c0.3-0.3,0.6-0.4,1.1-0.4c0.4,0,0.8,0.1,1,0.4C12.4,9.4,12.5,9.7,12.5,10.1z        M12.3,12.5v7.7H9.8v-7.7H12.3z M21.6,15.8v4.4H19v-4.1c0-0.5-0.1-1-0.3-1.3c-0.2-0.3-0.5-0.5-1-0.5c-0.3,0-0.6,0.1-0.8,0.3       s-0.4,0.4-0.5,0.7c-0.1,0.2-0.1,0.4-0.1,0.6v4.3h-2.6c0-2.1,0-3.8,0-5.1c0-1.3,0-2.1,0-2.3l0-0.4h2.6v1.1h0       c0.1-0.2,0.2-0.3,0.3-0.4s0.3-0.3,0.4-0.4c0.2-0.1,0.4-0.3,0.7-0.3c0.3-0.1,0.6-0.1,0.9-0.1c0.9,0,1.6,0.3,2.1,0.9       C21.3,13.8,21.6,14.6,21.6,15.8z"/>
  </g>
</g></symbol>
<symbol viewBox="0 0 30 30" id="icon-social-twitter"><g>
  <g>
    <path style="fill:#DDDDDD;" d="M15,1c7.7,0,14,6.3,14,14s-6.3,14-14,14C7.3,29,1,22.7,1,15S7.3,1,15,1 M15,0C6.7,0,0,6.7,0,15       c0,8.3,6.7,15,15,15s15-6.7,15-15C30,6.7,23.3,0,15,0L15,0z"/>
  </g>
  <g>
    <path style="fill:#9A9999;" d="M22.3,11.8c-0.3,0.5-0.8,0.9-1.3,1.3c0,0.1,0,0.2,0,0.3c0,0.7-0.1,1.4-0.3,2       c-0.2,0.7-0.5,1.3-0.9,1.9s-0.9,1.2-1.4,1.6s-1.2,0.9-2,1.1c-0.8,0.3-1.6,0.4-2.5,0.4c-1.4,0-2.7-0.4-3.9-1.1c0.2,0,0.4,0,0.6,0       c1.2,0,2.2-0.4,3.1-1.1c-0.5,0-1-0.2-1.5-0.5c-0.4-0.3-0.7-0.7-0.9-1.2c0.2,0,0.3,0,0.5,0c0.2,0,0.4,0,0.7-0.1       c-0.6-0.1-1.1-0.4-1.4-0.9s-0.6-1-0.6-1.6v0c0.4,0.2,0.7,0.3,1.1,0.3c-0.3-0.2-0.6-0.5-0.8-0.9c-0.2-0.4-0.3-0.8-0.3-1.2       c0-0.5,0.1-0.9,0.3-1.3c0.6,0.8,1.4,1.4,2.3,1.9c0.9,0.5,1.9,0.7,2.9,0.8c0-0.2-0.1-0.4-0.1-0.6c0-0.7,0.2-1.3,0.7-1.8       s1.1-0.7,1.8-0.7c0.7,0,1.3,0.3,1.8,0.8c0.6-0.1,1.1-0.3,1.6-0.6c-0.2,0.6-0.6,1.1-1.1,1.4C21.3,12.1,21.8,12,22.3,11.8z"/>
  </g>
</g></symbol>
<symbol viewBox="0 0 103.94 171.97" id="icon-track-analyze-01"><title>sc-icons-track-analyze</title>
  <g>
    <path d="M89.37,4A10.53,10.53,0,0,1,99.94,14.47v143A10.53,10.53,0,0,1,89.37,168H14.56A10.53,10.53,0,0,1,4,157.5v-143A10.53,10.53,0,0,1,14.56,4H89.37m0-4H14.56A14.54,14.54,0,0,0,0,14.47v143A14.54,14.54,0,0,0,14.56,172H89.37a14.54,14.54,0,0,0,14.56-14.47v-143A14.54,14.54,0,0,0,89.37,0h0Z" fill="#ddd"/>
  </g>
  <g>
    <path d="M93.9,32l0,104-81.85-.06L12,32H93.9m1.7-2H10.33a0.3,0.3,0,0,0-.3.3L10.09,137.6a0.3,0.3,0,0,0,.3.3L95.63,138a0.3,0.3,0,0,0,.3-0.3l0-107.39a0.3,0.3,0,0,0-.3-0.3h0Z" fill="#ddd"/>
  </g>
  <g>
    <g data-name="ear">
      <path d="M59.45,16.14H43.92c-2.11,0-2.93,3.84,0,3.84H59.45c2.93,0,2.11-3.84,0-3.84h0Z" fill="#ddd"/>
    </g>
  </g>
  <g>
    <g data-name="Camera">
      <ellipse cx="51.83" cy="9.89" rx="1.98" ry="1.97" fill="#ddd"/>
    </g>
  </g>
  <g data-name="Home Button">
    <g data-name="Base">
      <path d="M52.78,145.79a7,7,0,1,1-7.06,7,7,7,0,0,1,7.06-7m0-2a9,9,0,1,0,9.06,9,9,9,0,0,0-9.06-9h0Z" fill="#ddd"/>
    </g>
  </g>
  <g data-name="Rechteck 79" style="isolation: isolate">
    <g>
      <path d="M54.94,74v34h-4V74h4m4-4h-12v42h12V70h0Z" fill="#3b4b72"/>
      <path d="M36.94,86v22h-4V86h4m4-4h-12v30h12V82h0Z" fill="#3b4b72"/>
      <path d="M72.94,60v48h-4V60h4m4-4h-12v56h12V56h0Z" fill="#3b4b72"/>
    </g>
  </g></symbol>
<symbol viewBox="0 0 48 56" id="icon-track-analyze-02"><g style="enable-background:new    ;">
	<g>
		<path style="fill:#3B4B72;" d="M26,18v34h-4V18H26 M30,14H18v42h12V14L30,14z"/>
		<path style="fill:#3B4B72;" d="M8,30v22H4V30H8 M12,26H0v30h12V26L12,26z"/>
		<path style="fill:#3B4B72;" d="M44,4v48h-4V4H44 M48,0H36v56h12V0L48,0z"/>
	</g>
</g>
<g>
</g></symbol>
<symbol viewBox="0 0 26 28" id="icon-wrench"><path d="M6 23q0-0.406-0.297-0.703t-0.703-0.297-0.703 0.297-0.297 0.703 0.297 0.703 0.703 0.297 0.703-0.297 0.297-0.703zM16.063 16.438l-10.656 10.656q-0.578 0.578-1.406 0.578-0.812 0-1.422-0.578l-1.656-1.687q-0.594-0.562-0.594-1.406 0-0.828 0.594-1.422l10.641-10.641q0.609 1.531 1.789 2.711t2.711 1.789zM25.969 9.641q0 0.609-0.359 1.656-0.734 2.094-2.57 3.398t-4.039 1.305q-2.891 0-4.945-2.055t-2.055-4.945 2.055-4.945 4.945-2.055q0.906 0 1.898 0.258t1.68 0.727q0.25 0.172 0.25 0.438t-0.25 0.438l-4.578 2.641v3.5l3.016 1.672q0.078-0.047 1.234-0.758t2.117-1.266 1.102-0.555q0.234 0 0.367 0.156t0.133 0.391z"/></symbol>
<symbol viewBox="0 0 153.6 31.5" id="shortcut-logo"><g>
	<defs>
		<rect y="0" width="153.6" height="31.5"/>
	</defs>
	<path clip-path="url(#SVGID_1_)" fill="#FFFFFF" d="M53.5,11.3l-1.8,1.2c-0.8-1.1-2.1-1.7-3.5-1.7c-1.3,0-2.4,0.5-2.4,1.7   c0,1.3,1.3,1.5,2.9,1.9c2.6,0.6,5,1.3,5,4c0,2.5-2,4.2-5.2,4.2c-2.6,0-4.6-1.1-5.6-3l1.9-1.1c0.9,1.5,2.4,2.1,3.9,2.1   c1.7,0,2.8-0.7,2.8-2c0-1.4-1.4-1.7-3.3-2.1c-2.4-0.5-4.6-1.3-4.6-3.9c0-2.4,2-3.9,4.8-3.9C50.3,8.8,52.3,9.6,53.5,11.3"/>
	<polygon clip-path="url(#SVGID_1_)" fill="#FFFFFF" points="65.9,22.4 65.9,16.4 59.3,16.4 59.3,22.4 57,22.4 57,9.1 59.3,9.1    59.3,14.3 65.9,14.3 65.9,9.1 68.2,9.1 68.2,22.4  "/>
	<path clip-path="url(#SVGID_1_)" fill="#FFFFFF" d="M78.1,22.6c-4.1,0-6.6-3-6.6-6.9c0-3.9,2.5-6.9,6.6-6.9c4.1,0,6.6,3,6.6,6.9   C84.6,19.6,82.1,22.6,78.1,22.6 M78.1,11c-2.6,0-4.2,2-4.2,4.7c0,2.7,1.5,4.7,4.2,4.7c2.6,0,4.2-2,4.2-4.7C82.2,13,80.7,11,78.1,11   "/>
	<path clip-path="url(#SVGID_1_)" fill="#FFFFFF" d="M96.2,22.4l-2.7-5.1h-3.3v5.1h-2.3V9.1h5.9c2.9,0,4.6,1.6,4.6,4   c0,1.9-1.2,3.2-2.6,3.8l3,5.5H96.2z M93.8,11.1h-3.6v4.2h3.6c1.4,0,2.3-0.8,2.3-2.1C96.1,11.9,95.2,11.1,93.8,11.1"/>
	<polygon clip-path="url(#SVGID_1_)" fill="#FFFFFF" points="107.3,11.1 107.3,22.4 105,22.4 105,11.1 100.6,11.1 100.6,9.1    111.7,9.1 111.7,11.1  "/>
	<path clip-path="url(#SVGID_1_)" fill="#FFFFFF" d="M123.6,12.9c-0.8-1.3-2-2-3.5-2c-2.5,0-4.1,2-4.1,4.8c0,2.9,1.6,4.9,4.1,4.9   c1.6,0,2.7-0.8,3.5-2.1l1.9,1.1c-1.2,1.9-3,3.1-5.5,3.1c-3.9,0-6.5-2.9-6.5-6.9c0-4,2.6-6.9,6.5-6.9c2.3,0,4.2,1,5.4,2.9   L123.6,12.9z"/>
	<path clip-path="url(#SVGID_1_)" fill="#FFFFFF" d="M139.5,17.3c0,3.3-2.3,5.3-5.6,5.3c-3.3,0-5.5-2-5.5-5.3V9.1h2.3v8.3   c0,1.9,1.2,3.1,3.2,3.1c2,0,3.3-1.2,3.3-3.1V9.1h2.3V17.3z"/>
	<polygon clip-path="url(#SVGID_1_)" fill="#FFFFFF" points="149,11.1 149,22.4 146.7,22.4 146.7,11.1 142.3,11.1 142.3,9.1    153.4,9.1 153.4,11.1  "/>
	<path clip-path="url(#SVGID_1_)" fill="#FFFFFF" d="M3.8,22.6C0.7,17.2,1.6,10.4,6,6c4.4-4.4,11.2-5.3,16.5-2.2   c0.5,0.3,1.1,0.1,1.4-0.4C24.2,3,24,2.4,23.6,2.1C17.4-1.4,9.6-0.4,4.6,4.6c-5,5-6.1,12.8-2.5,19c0,0.1,0.1,0.1,0.2,0.2   c0.3,0.3,0.8,0.4,1.2,0.2C3.9,23.7,4.1,23,3.8,22.6"/>
	<path clip-path="url(#SVGID_1_)" fill="#FFFFFF" d="M22.3,22.2c3.4-3.4,3.6-8.7,0.7-12.3l6.5-6.5c0.4-0.4,0.4-1,0-1.4   c-0.4-0.4-1-0.4-1.4,0l-6.5,6.5c-3.6-2.9-8.9-2.7-12.3,0.7c-3.4,3.4-3.6,8.7-0.7,12.3L2.1,28c-0.4,0.4-0.4,1,0,1.4   c0.4,0.4,1,0.4,1.4,0l6.5-6.5C13.6,25.8,18.9,25.6,22.3,22.2 M11.4,21.5l3.1-3.1c0.4-0.4,0.4-1,0-1.4c-0.4-0.4-1-0.4-1.4,0L10,20.1   c-2.1-2.8-1.9-6.9,0.7-9.4c2.6-2.6,6.6-2.8,9.4-0.7L17,13.1c-0.4,0.4-0.4,1,0,1.4c0.4,0.4,1,0.4,1.4,0l3.1-3.1   c2.1,2.8,1.9,6.9-0.7,9.4C18.3,23.4,14.2,23.6,11.4,21.5"/>
	<path clip-path="url(#SVGID_1_)" fill="#FFFFFF" d="M29.4,7.9c-0.3-0.5-0.9-0.6-1.4-0.4s-0.6,0.9-0.4,1.4   c3.1,5.4,2.2,12.2-2.2,16.5s-11.2,5.3-16.5,2.2c-0.5-0.3-1.1-0.1-1.4,0.4c-0.2,0.4-0.2,0.9,0.2,1.2c0.1,0.1,0.1,0.1,0.2,0.2   c6.1,3.5,13.9,2.5,18.9-2.5C31.9,21.9,32.9,14.1,29.4,7.9"/>
</g></symbol></svg>